# xmcd
#
# Track frame offsets: 
#        150
#        16662
#        33833
#        54028
#        70975
#        89300
#        106149
#        123831
#        142131
#        155423
#        168986
#        187402
#        202418
#        218856
#        241100
#        259144
#        275357
#
# Disc length: 3914 seconds
#
# Revision: 0
# Processed by: cddbd v1.5.2PL0 Copyright (c) Steve Scherf et al.
# Submitted via: ExactAudioCopyFreeDBPlugin 1.0
#
DISCID=ef0f4811
DTITLE=À La Carte ‎ - The Best Of À La Carte
DYEAR=1994
DGENRE=Pop
TTITLE0=Do Wah Diddy Diddy
TTITLE1=In The Summer Sun Of Greece
TTITLE2=Doctor, Doctor (Help Me Please)
TTITLE3=Wanted (Jean Le Voleur)
TTITLE4=Ring Me, Honey
TTITLE5=Cubatão
TTITLE6=Viva Torero
TTITLE7=Red Indian Drums
TTITLE8=Dong Dong Diki Diki Dong
TTITLE9=Jimmy Gimme Reggae
TTITLE10=When The Boys Come Home
TTITLE11=Ahé Tamouré
TTITLE12=Farewell, Farewell To Carlingford
TTITLE13=River Blue
TTITLE14=Tennessee Waltz
TTITLE15=On Top Of Old Smokie
TTITLE16=Bananas
EXTD=
EXTT0=
EXTT1=
EXTT2=
EXTT3=
EXTT4=
EXTT5=
EXTT6=
EXTT7=
EXTT8=
EXTT9=
EXTT10=
EXTT11=
EXTT12=
EXTT13=
EXTT14=
EXTT15=
EXTT16=
PLAYORDER=
